STARTFONT 2.1
COMMENT  
COMMENT  Copyright 1988 Bitstream, Inc., Cambridge, Massachusetts, USA
COMMENT  Bitstream and Charter are registered trademarks of Bitstream, Inc.
COMMENT  
COMMENT  The names "Bitstream" and "Charter" are registered trademarks of
COMMENT  Bitstream, Inc.  Permission to use these trademarks is hereby
COMMENT  granted only in association with the images described in this file.
COMMENT  
COMMENT  Permission to use, copy, modify, and distribute this software and
COMMENT  its documentation for any purpose and without fee is hereby
COMMENT  granted, provided that the above copyright notice appear in all
COMMENT  copies and that both that copyright notice and this permission
COMMENT  notice appear in supporting documentation, and that the name of
COMMENT  Bitstream not be used in advertising or publicity pertaining to
COMMENT  distribution of the software without specific, written prior
COMMENT  permission.  Bitstream makes no representations about the
COMMENT  suitability of this software for any purpose.  It is provided "as
COMMENT  is" without express or implied warranty.
COMMENT  
COMMENT  BITSTREAM DISCLAIMS ALL WARRANTIES WITH REGARD TO THIS SOFTWARE,
COMMENT  INCLUDING ALL IMPLIED WARRANTIES OF MERCHANTABILITY AND FITNESS, IN
COMMENT  NO EVENT SHALL BITSTREAM BE LIABLE FOR ANY SPECIAL, INDIRECT OR
COMMENT  CONSEQUENTIAL DAMAGES OR ANY DAMAGES WHATSOEVER RESULTING FROM LOSS
COMMENT  OF USE, DATA OR PROFITS, WHETHER IN AN ACTION OF CONTRACT,
COMMENT  NEGLIGENCE OR OTHER TORTIOUS ACTION, ARISING OUT OF OR IN
COMMENT  CONNECTION WITH THE USE OR PERFORMANCE OF THIS SOFTWARE.
COMMENT  
COMMENT  
COMMENT Fontware CVTBDF v1.0
FONT -Bitstream-Charter-Bold-R-Normal--10-100-75-75-P-63-ISO8859-1
SIZE 10 75 75
FONTBOUNDINGBOX 12 13 -1 -3
STARTPROPERTIES 22
COMMENT Begin LogicalFontDescription
FONTNAME_REGISTRY ""
FAMILY_NAME "Charter"
FOUNDRY "Bitstream"
WEIGHT_NAME "Bold"
SETWIDTH_NAME "Normal"
SLANT "R"
ADD_STYLE_NAME ""
PIXEL_SIZE 10
POINT_SIZE 100

STARTCHAR space
ENCODING 32
SWIDTH 322 0
DWIDTH 3 0
BBX 1 1 0 0
BITMAP
00
ENDCHAR
STARTCHAR exclam
ENCODING 33
SWIDTH 343 0
DWIDTH 4 0
BBX 2 7 1 0
BITMAP
c0
c0
c0
40
00
c0
c0
ENDCHAR
STARTCHAR quotedbl
ENCODING 34
SWIDTH 339 0
DWIDTH 5 0
BBX 3 3 1 5
BITMAP
a0
a0
a0
ENDCHAR
STARTCHAR numbersign
ENCODING 35
SWIDTH 769 0
DWIDTH 8 0
BBX 7 7 0 0
BITMAP
14
14
7e
28
fe
50
50
ENDCHAR
STARTCHAR dollar
ENCODING 36
SWIDTH 644 0
DWIDTH 7 0
BBX 6 9 1 -1
BITMAP
20
78
e8
e0
78
2c
ac
f0
20
ENDCHAR
STARTCHAR percent
ENCODING 37
SWIDTH 972 0
DWIDTH 10 0
BBX 8 8 1 0
BITMAP
4400
a400
a800
aa00
5500
1500
2500
2200
ENDCHAR
STARTCHAR ampersand
ENCODING 38
SWIDTH 822 0
DWIDTH 9 0
BBX 8 7 1 0
BITMAP
3800
6c00
6c00
7b00
da00
ee00
7300
ENDCHAR
STARTCHAR quoteright
ENCODING 39
SWIDTH 331 0
DWIDTH 3 0
BBX 2 3 1 4
BITMAP
c0
c0
c0
ENDCHAR
STARTCHAR parenleft
ENCODING 40
SWIDTH 440 0
DWIDTH 5 0
BBX 4 9 1 -1
BITMAP
30
60
c0
c0
c0
c0
c0
60
30
ENDCHAR
STARTCHAR parenright
ENCODING 41
SWIDTH 440 0
DWIDTH 5 0
BBX 4 9 0 -1
BITMAP
c0
60
30
30
30
30
30
60
c0
ENDCHAR
STARTCHAR asterisk
ENCODING 42
SWIDTH 500 0
DWIDTH 5 0
BBX 4 4 0 4
BITMAP
60
b0
60
90
ENDCHAR
STARTCHAR plus
ENCODING 43
SWIDTH 833 0
DWIDTH 9 0
BBX 7 7 1 0
BITMAP
10
10
10
fe
10
10
10
ENDCHAR
STARTCHAR comma
ENCODING 44
SWIDTH 322 0
DWIDTH 3 0
BBX 2 4 1 -2
BITMAP
c0
c0
40
80
ENDCHAR
STARTCHAR hyphen
ENCODING 45
SWIDTH 333 0
DWIDTH 3 0
BBX 3 1 0 2
BITMAP
e0
ENDCHAR
STARTCHAR period
ENCODING 46
SWIDTH 322 0
DWIDTH 3 0
BBX 2 2 1 0
BITMAP
c0
c0
ENDCHAR
STARTCHAR slash
ENCODING 47
SWIDTH 500 0
DWIDTH 5 0
BBX 5 8 0 -1
BITMAP
08
10
10
20
20
40
40
80
ENDCHAR
STARTCHAR zero
ENCODING 48
SWIDTH 644 0
DWIDTH 7 0
BBX 6 7 1 0
BITMAP
30
48
cc
cc
cc
48
30
ENDCHAR
STARTCHAR one
ENCODING 49
SWIDTH 644 0
DWIDTH 7 0
BBX 4 7 2 0
BITMAP
60
e0
60
60
60
60
f0
ENDCHAR
STARTCHAR two
ENCODING 50
SWIDTH 644 0
DWIDTH 7 0
BBX 6 7 1 0
BITMAP
78
cc
0c
18
64
fc
fc
ENDCHAR
STARTCHAR three
ENCODING 51
SWIDTH 644 0
DWIDTH 7 0
BBX 6 7 1 0
BITMAP
78
cc
18
30
0c
cc
78
ENDCHAR
STARTCHAR four
ENCODING 52
SWIDTH 644 0
DWIDTH 7 0
BBX 6 7 1 0
BITMAP
18
38
58
98
fc
18
18
ENDCHAR
STARTCHAR five
ENCODING 53
SWIDTH 644 0
DWIDTH 7 0
BBX 6 7 1 0
BITMAP
f8
f8
c0
f8
0c
cc
f0
ENDCHAR
STARTCHAR six
ENCODING 54
SWIDTH 644 0
DWIDTH 7 0
BBX 6 7 1 0
BITMAP
18
60
f8
cc
cc
4c
38
ENDCHAR
STARTCHAR seven
ENCODING 55
SWIDTH 644 0
DWIDTH 7 0
BBX 6 7 1 0
BITMAP
fc
fc
88
18
10
20
60
ENDCHAR
STARTCHAR eight
ENCODING 56
SWIDTH 644 0
DWIDTH 7 0
BBX 6 7 1 0
BITMAP
38
4c
e8
38
cc
cc
78
ENDCHAR
STARTCHAR nine
ENCODING 57
SWIDTH 644 0
DWIDTH 7 0
BBX 6 7 1 0
BITMAP
30
cc
cc
cc
7c
18
60
ENDCHAR
STARTCHAR colon
ENCODING 58
SWIDTH 387 0
DWIDTH 4 0
BBX 2 5 1 0
BITMAP
c0
c0
00
c0
c0
ENDCHAR
STARTCHAR semicolon
ENCODING 59
SWIDTH 387 0
DWIDTH 4 0
BBX 2 7 1 -2
BITMAP
c0
c0
00
c0
c0
40
80
ENDCHAR
STARTCHAR less
ENCODING 60
SWIDTH 833 0
DWIDTH 9 0
BBX 6 6 1 0
BITMAP
04
38
c0
c0
38
04
ENDCHAR
STARTCHAR equal
ENCODING 61
SWIDTH 833 0
DWIDTH 9 0
BBX 6 3 2 2
BITMAP
fc
00
fc
ENDCHAR
STARTCHAR greater
ENCODING 62
SWIDTH 833 0
DWIDTH 9 0
BBX 6 6 2 0
BITMAP
80
70
0c
0c
70
80
ENDCHAR
STARTCHAR question
ENCODING 63
SWIDTH 519 0
DWIDTH 5 0
BBX 5 7 0 0
BITMAP
70
d8
18
20
00
60
60
ENDCHAR
STARTCHAR at
ENCODING 64
SWIDTH 942 0
DWIDTH 10 0
BBX 8 9 1 -1
BITMAP
1c00
6200
5d00
a500
a500
aa00
bc00
4200
3c00
ENDCHAR
STARTCHAR A
ENCODING 65
SWIDTH 701 0
DWIDTH 8 0
BBX 8 7 0 0
BITMAP
1800
3c00
2c00
2c00
7e00
4600
c700
ENDCHAR
STARTCHAR B
ENCODING 66
SWIDTH 690 0
DWIDTH 7 0
BBX 6 7 1 0
BITMAP
f8
6c
68
78
6c
6c
f8
ENDCHAR
STARTCHAR C
ENCODING 67
SWIDTH 683 0
DWIDTH 7 0
BBX 6 7 1 0
BITMAP
3c
64
c0
c0
c0
64
3c
ENDCHAR
STARTCHAR D
ENCODING 68
SWIDTH 780 0
DWIDTH 8 0
BBX 7 7 1 0
BITMAP
f8
6c
66
66
66
6c
f8
ENDCHAR
STARTCHAR E
ENCODING 69
SWIDTH 653 0
DWIDTH 7 0
BBX 6 7 1 0
BITMAP
fc
64
68
78
68
64
fc
ENDCHAR
STARTCHAR F
ENCODING 70
SWIDTH 602 0
DWIDTH 8 0
BBX 7 7 1 0
BITMAP
fe
62
64
7c
64
60
f0
ENDCHAR
STARTCHAR G
ENCODING 71
SWIDTH 766 0
DWIDTH 8 0
BBX 7 7 1 0
BITMAP
3c
64
c0
de
cc
6c
3c
ENDCHAR
STARTCHAR H
ENCODING 72
SWIDTH 824 0
DWIDTH 10 0
BBX 9 7 1 0
BITMAP
f780
6300
6300
7f00
6300
6300
f780
ENDCHAR
STARTCHAR I
ENCODING 73
SWIDTH 410 0
DWIDTH 5 0
BBX 4 7 1 0
BITMAP
f0
60
60
60
60
60
f0
ENDCHAR
STARTCHAR J
ENCODING 74
SWIDTH 516 0
DWIDTH 5 0
BBX 5 7 0 0
BITMAP
78
30
30
30
30
b0
e0
ENDCHAR
STARTCHAR K
ENCODING 75
SWIDTH 727 0
DWIDTH 8 0
BBX 7 7 1 0
BITMAP
f6
64
68
78
6c
64
f6
ENDCHAR
STARTCHAR L
ENCODING 76
SWIDTH 600 0
DWIDTH 6 0
BBX 5 7 1 0
BITMAP
f0
60
60
60
60
68
f8
ENDCHAR
STARTCHAR M
ENCODING 77
SWIDTH 961 0
DWIDTH 10 0
BBX 9 7 1 0
BITMAP
e780
6700
7700
5b00
5b00
5b00
ff80
ENDCHAR
STARTCHAR N
ENCODING 78
SWIDTH 782 0
DWIDTH 8 0
BBX 7 7 1 0
BITMAP
ee
64
74
54
5c
4c
ec
ENDCHAR
STARTCHAR O
ENCODING 79
SWIDTH 815 0
DWIDTH 8 0
BBX 7 7 1 0
BITMAP
38
6c
c6
c6
c6
6c
38
ENDCHAR
STARTCHAR P
ENCODING 80
SWIDTH 653 0
DWIDTH 7 0
BBX 6 7 1 0
BITMAP
f8
6c
6c
6c
78
60
f0
ENDCHAR
STARTCHAR Q
ENCODING 81
SWIDTH 815 0
DWIDTH 8 0
BBX 7 9 1 -2
BITMAP
38
6c
c6
c6
c6
6c
38
18
1e
ENDCHAR
STARTCHAR R
ENCODING 82
SWIDTH 736 0
DWIDTH 8 0
BBX 7 7 1 0
BITMAP
f8
6c
6c
70
68
6c
f6
ENDCHAR
STARTCHAR S
ENCODING 83
SWIDTH 616 0
DWIDTH 6 0
BBX 5 7 1 0
BITMAP
78
c8
c0
70
18
98
f0
ENDCHAR
STARTCHAR T
ENCODING 84
SWIDTH 646 0
DWIDTH 7 0
BBX 6 7 1 0
BITMAP
fc
b4
30
30
30
30
78
ENDCHAR
STARTCHAR U
ENCODING 85
SWIDTH 757 0
DWIDTH 9 0
BBX 8 7 1 0
BITMAP
f700
6200
6200
6200
6200
6200
3c00
ENDCHAR
STARTCHAR V
ENCODING 86
SWIDTH 690 0
DWIDTH 8 0
BBX 8 7 0 0
BITMAP
f700
6200
3200
3400
1c00
1c00
0800
ENDCHAR
STARTCHAR W
ENCODING 87
SWIDTH 1014 0
DWIDTH 11 0
BBX 11 7 0 0
BITMAP
f6e0
6640
6ac0
3a80
3b80
3180
1100
ENDCHAR
STARTCHAR X
ENCODING 88
SWIDTH 713 0
DWIDTH 7 0
BBX 7 7 0 0
BITMAP
ee
64
38
18
38
4c
ee
ENDCHAR
STARTCHAR Y
ENCODING 89
SWIDTH 671 0
DWIDTH 8 0
BBX 8 7 0 0
BITMAP
f700
6200
3400
3800
1800
1800
3c00
ENDCHAR
STARTCHAR Z
ENCODING 90
SWIDTH 634 0
DWIDTH 7 0
BBX 6 7 0 0
BITMAP
fc
9c
18
30
60
e4
fc
ENDCHAR
STARTCHAR bracketleft
ENCODING 91
SWIDTH 495 0
DWIDTH 5 0
BBX 3 8 2 -1
BITMAP
e0
c0
c0
c0
c0
c0
c0
e0
ENDCHAR
STARTCHAR backslash
ENCODING 92
SWIDTH 500 0
DWIDTH 5 0
BBX 5 8 0 -1
BITMAP
80
40
40
20
20
10
10
08
ENDCHAR
STARTCHAR bracketright
ENCODING 93
SWIDTH 495 0
DWIDTH 5 0
BBX 3 8 0 -1
BITMAP
e0
60
60
60
60
60
60
e0
ENDCHAR
STARTCHAR asciicircum
ENCODING 94
SWIDTH 1000 0
DWIDTH 10 0
BBX 6 3 2 5
BITMAP
30
48
84
ENDCHAR
STARTCHAR underscore
ENCODING 95
SWIDTH 500 0
DWIDTH 5 0
BBX 5 1 0 -2
BITMAP
f8
ENDCHAR
STARTCHAR quoteleft
ENCODING 96
SWIDTH 331 0
DWIDTH 3 0
BBX 2 3 1 4
BITMAP
c0
c0
c0
ENDCHAR
STARTCHAR a
ENCODING 97
SWIDTH 616 0
DWIDTH 6 0
BBX 5 5 1 0
BITMAP
70
38
d8
d8
f8
ENDCHAR
STARTCHAR b
ENCODING 98
SWIDTH 650 0
DWIDTH 7 0
BBX 6 8 1 0
BITMAP
c0
c0
c0
f8
cc
cc
c8
f0
ENDCHAR
STARTCHAR c
ENCODING 99
SWIDTH 537 0
DWIDTH 6 0
BBX 5 5 1 0
BITMAP
30
d8
c0
c0
78
ENDCHAR
STARTCHAR d
ENCODING 100
SWIDTH 664 0
DWIDTH 7 0
BBX 6 8 1 0
BITMAP
1c
0c
0c
3c
cc
cc
ec
7c
ENDCHAR
STARTCHAR e
ENCODING 101
SWIDTH 590 0
DWIDTH 6 0
BBX 5 5 1 0
BITMAP
30
d8
f8
c0
78
ENDCHAR
STARTCHAR f
ENCODING 102
SWIDTH 387 0
DWIDTH 4 0
BBX 4 8 1 0
BITMAP
30
50
c0
e0
c0
c0
c0
e0
ENDCHAR
STARTCHAR g
ENCODING 103
SWIDTH 613 0
DWIDTH 6 0
BBX 5 7 1 -2
BITMAP
70
d8
70
40
78
c8
70
ENDCHAR
STARTCHAR h
ENCODING 104
SWIDTH 667 0
DWIDTH 7 0
BBX 6 8 1 0
BITMAP
c0
c0
c0
fc
cc
cc
cc
dc
ENDCHAR
STARTCHAR i
ENCODING 105
SWIDTH 354 0
DWIDTH 4 0
BBX 2 8 1 0
BITMAP
c0
c0
00
c0
c0
c0
c0
c0
ENDCHAR
STARTCHAR j
ENCODING 106
SWIDTH 352 0
DWIDTH 4 0
BBX 4 10 -1 -2
BITMAP
30
30
00
30
30
30
30
30
f0
40
ENDCHAR
STARTCHAR k
ENCODING 107
SWIDTH 623 0
DWIDTH 7 0
BBX 6 8 1 0
BITMAP
c0
c0
c0
dc
d0
f0
d8
dc
ENDCHAR
STARTCHAR l
ENCODING 108
SWIDTH 350 0
DWIDTH 4 0
BBX 2 8 1 0
BITMAP
c0
c0
c0
c0
c0
c0
c0
c0
ENDCHAR
STARTCHAR m
ENCODING 109
SWIDTH 991 0
DWIDTH 9 0
BBX 8 5 1 0
BITMAP
ff00
db00
db00
db00
db00
ENDCHAR
STARTCHAR n
ENCODING 110
SWIDTH 678 0
DWIDTH 7 0
BBX 6 5 1 0
BITMAP
fc
cc
cc
cc
dc
ENDCHAR
STARTCHAR o
ENCODING 111
SWIDTH 650 0
DWIDTH 7 0
BBX 6 5 1 0
BITMAP
78
cc
cc
cc
78
ENDCHAR
STARTCHAR p
ENCODING 112
SWIDTH 667 0
DWIDTH 7 0
BBX 6 7 1 -2
BITMAP
fc
cc
cc
cc
f0
c0
e0
ENDCHAR
STARTCHAR q
ENCODING 113
SWIDTH 655 0
DWIDTH 7 0
BBX 6 7 1 -2
BITMAP
3c
4c
cc
cc
7c
0c
1c
ENDCHAR
STARTCHAR r
ENCODING 114
SWIDTH 488 0
DWIDTH 5 0
BBX 4 5 1 0
BITMAP
f0
d0
c0
c0
e0
ENDCHAR
STARTCHAR s
ENCODING 115
SWIDTH 523 0
DWIDTH 5 0
BBX 4 5 1 0
BITMAP
70
d0
60
b0
e0
ENDCHAR
STARTCHAR t
ENCODING 116
SWIDTH 407 0
DWIDTH 4 0
BBX 3 7 1 0
BITMAP
40
c0
e0
c0
c0
c0
e0
ENDCHAR
STARTCHAR u
ENCODING 117
SWIDTH 667 0
DWIDTH 7 0
BBX 6 5 1 0
BITMAP
dc
cc
cc
cc
7c
ENDCHAR
STARTCHAR v
ENCODING 118
SWIDTH 565 0
DWIDTH 6 0
BBX 6 5 0 0
BITMAP
fc
48
70
70
20
ENDCHAR
STARTCHAR w
ENCODING 119
SWIDTH 873 0
DWIDTH 9 0
BBX 9 5 0 0
BITMAP
ed80
4d00
7700
7700
2200
ENDCHAR
STARTCHAR x
ENCODING 120
SWIDTH 593 0
DWIDTH 6 0
BBX 6 5 0 0
BITMAP
ec
68
30
58
dc
ENDCHAR
STARTCHAR y
ENCODING 121
SWIDTH 567 0
DWIDTH 6 0
BBX 6 7 0 -2
BITMAP
ec
68
68
30
30
a0
c0
ENDCHAR
STARTCHAR z
ENCODING 122
SWIDTH 556 0
DWIDTH 6 0
BBX 5 5 1 0
BITMAP
f8
b0
60
e8
f8
ENDCHAR
STARTCHAR braceleft
ENCODING 123
SWIDTH 500 0
DWIDTH 5 0
BBX 4 8 0 -1
BITMAP
30
60
60
80
60
60
60
30
ENDCHAR
STARTCHAR bar
ENCODING 124
SWIDTH 500 0
DWIDTH 5 0
BBX 1 10 2 -2
BITMAP
80
80
80
80
80
80
80
80
80
80
ENDCHAR
STARTCHAR braceright
ENCODING 125
SWIDTH 500 0
DWIDTH 5 0
BBX 4 8 1 -1
BITMAP
c0
60
60
10
60
60
60
c0
ENDCHAR
STARTCHAR c0126
ENCODING 126
SWIDTH 1000 0
DWIDTH 10 0
BBX 6 2 2 5
BITMAP
64
98
ENDCHAR
STARTCHAR space
ENCODING 160
SWIDTH 322 0
DWIDTH 3 0
BBX 1 1 0 0
BITMAP
00
ENDCHAR
STARTCHAR exclamdown
ENCODING 161
SWIDTH 343 0
DWIDTH 4 0
BBX 2 7 1 0
BITMAP
c0
c0
00
80
c0
c0
c0
ENDCHAR
STARTCHAR cent
ENCODING 162
SWIDTH 644 0
DWIDTH 7 0
BBX 6 7 1 -1
BITMAP
10
3c
f4
d0
74
3c
10
ENDCHAR
STARTCHAR sterling
ENCODING 163
SWIDTH 644 0
DWIDTH 7 0
BBX 6 7 1 0
BITMAP
38
6c
60
f8
60
40
fc
ENDCHAR
STARTCHAR currency
ENCODING 164
SWIDTH 606 0
DWIDTH 6 0
BBX 6 6 0 1
BITMAP
84
78
48
48
78
84
ENDCHAR
STARTCHAR yen
ENCODING 165
SWIDTH 671 0
DWIDTH 7 0
BBX 7 7 0 0
BITMAP
f6
64
f6
18
fe
18
3c
ENDCHAR
STARTCHAR brokenbar
ENCODING 166
SWIDTH 500 0
DWIDTH 5 0
BBX 1 9 2 -1
BITMAP
80
80
80
80
00
80
80
80
80
ENDCHAR
STARTCHAR section
ENCODING 167
SWIDTH 500 0
DWIDTH 5 0
BBX 4 9 1 -1
BITMAP
60
a0
c0
e0
b0
e0
60
b0
c0
ENDCHAR
STARTCHAR dieresis
ENCODING 168
SWIDTH 500 0
DWIDTH 5 0
BBX 5 2 0 6
BITMAP
d8
d8
ENDCHAR
STARTCHAR copyright
ENCODING 169
SWIDTH 900 0
DWIDTH 9 0
BBX 8 8 1 0
BITMAP
1c00
2200
5e00
a500
a500
5e00
2200
1c00
ENDCHAR
STARTCHAR ordfeminine
ENCODING 170
SWIDTH 462 0
DWIDTH 5 0
BBX 4 4 1 4
BITMAP
f0
70
90
f0
ENDCHAR
STARTCHAR guillemotleft
ENCODING 171
SWIDTH 458 0
DWIDTH 5 0
BBX 4 4 0 1
BITMAP
50
a0
b0
50
ENDCHAR
STARTCHAR logicalnot
ENCODING 172
SWIDTH 833 0
DWIDTH 9 0
BBX 6 3 2 2
BITMAP
fc
04
04
ENDCHAR
STARTCHAR hyphen
ENCODING 173
SWIDTH 333 0
DWIDTH 3 0
BBX 3 1 0 2
BITMAP
e0
ENDCHAR
STARTCHAR registered
ENCODING 174
SWIDTH 900 0
DWIDTH 9 0
BBX 8 8 1 0
BITMAP
1c00
2200
7e00
9500
9900
7600
2200
1c00
ENDCHAR
STARTCHAR macron
ENCODING 175
SWIDTH 500 0
DWIDTH 5 0
BBX 4 1 1 6
BITMAP
f0
ENDCHAR
STARTCHAR degree
ENCODING 176
SWIDTH 329 0
DWIDTH 3 0
BBX 3 3 0 4
BITMAP
40
a0
40
ENDCHAR
STARTCHAR plusminus
ENCODING 177
SWIDTH 833 0
DWIDTH 9 0
BBX 7 7 1 0
BITMAP
10
10
fe
10
10
00
fe
ENDCHAR
STARTCHAR twosuperior
ENCODING 178
SWIDTH 425 0
DWIDTH 4 0
BBX 3 5 1 2
BITMAP
40
a0
20
60
e0
ENDCHAR
STARTCHAR threesuperior
ENCODING 179
SWIDTH 425 0
DWIDTH 4 0
BBX 3 5 1 2
BITMAP
c0
20
40
20
c0
ENDCHAR
STARTCHAR acute
ENCODING 180
SWIDTH 500 0
DWIDTH 5 0
BBX 2 2 2 6
BITMAP
40
80
ENDCHAR
STARTCHAR mu
ENCODING 181
SWIDTH 578 0
DWIDTH 6 0
BBX 7 6 -1 -2
BITMAP
6c
48
4a
bc
80
80
ENDCHAR
STARTCHAR paragraph
ENCODING 182
SWIDTH 500 0
DWIDTH 5 0
BBX 5 8 0 -1
BITMAP
78
d0
d0
d0
50
10
10
10
ENDCHAR
STARTCHAR periodcentered
ENCODING 183
SWIDTH 322 0
DWIDTH 3 0
BBX 2 2 1 3
BITMAP
c0
c0
ENDCHAR
STARTCHAR cedilla
ENCODING 184
SWIDTH 500 0
DWIDTH 5 0
BBX 2 3 2 -3
BITMAP
c0
40
c0
ENDCHAR
STARTCHAR onesuperior
ENCODING 185
SWIDTH 425 0
DWIDTH 4 0
BBX 1 5 3 2
BITMAP
80
80
80
80
80
ENDCHAR
STARTCHAR ordmasculine
ENCODING 186
SWIDTH 488 0
DWIDTH 5 0
BBX 4 4 1 4
BITMAP
60
90
90
60
ENDCHAR
STARTCHAR guillemotright
ENCODING 187
SWIDTH 458 0
DWIDTH 5 0
BBX 4 4 0 1
BITMAP
a0
50
50
a0
ENDCHAR
STARTCHAR onequarter
ENCODING 188
SWIDTH 977 0
DWIDTH 10 0
BBX 8 7 2 0
BITMAP
8800
9000
9000
a600
4a00
4f00
8200
ENDCHAR
STARTCHAR onehalf
ENCODING 189
SWIDTH 977 0
DWIDTH 10 0
BBX 8 7 2 0
BITMAP
8800
9000
9000
a200
4500
4200
8700
ENDCHAR
STARTCHAR threequarters
ENCODING 190
SWIDTH 977 0
DWIDTH 10 0
BBX 9 8 1 0
BITMAP
c000
2400
4800
2800
d300
2500
2780
4100
ENDCHAR
STARTCHAR questiondown
ENCODING 191
SWIDTH 519 0
DWIDTH 5 0
BBX 5 7 0 0
BITMAP
30
30
00
20
c0
d8
70
ENDCHAR
STARTCHAR Agrave
ENCODING 192
SWIDTH 701 0
DWIDTH 8 0
BBX 8 9 0 0
BITMAP
2000
1000
1800
3c00
2c00
2c00
7e00
4600
c700
ENDCHAR
STARTCHAR Aacute
ENCODING 193
SWIDTH 701 0
DWIDTH 8 0
BBX 8 9 0 0
BITMAP
0800
1000
1800
3c00
2c00
2c00
7e00
4600
c700
ENDCHAR
STARTCHAR Acircumflex
ENCODING 194
SWIDTH 701 0
DWIDTH 8 0
BBX 8 9 0 0
BITMAP
1000
2800
1800
3c00
2c00
2c00
7e00
4600
c700
ENDCHAR
STARTCHAR Atilde
ENCODING 195
SWIDTH 701 0
DWIDTH 8 0
BBX 8 9 0 0
BITMAP
3800
3800
1800
3c00
2c00
2c00
7e00
4600
c700
ENDCHAR
STARTCHAR Adieresis
ENCODING 196
SWIDTH 701 0
DWIDTH 8 0
BBX 8 9 0 0
BITMAP
6c00
6c00
1800
3c00
2c00
2c00
7e00
4600
c700
ENDCHAR
STARTCHAR Aring
ENCODING 197
SWIDTH 701 0
DWIDTH 8 0
BBX 8 10 0 0
BITMAP
3800
1800
0000
1800
3c00
2c00
2c00
7e00
4600
c700
ENDCHAR
STARTCHAR AE
ENCODING 198
SWIDTH 963 0
DWIDTH 10 0
BBX 11 7 -1 0
BITMAP
1fe0
0e20
1640
27c0
3e40
4620
cfe0
ENDCHAR
STARTCHAR Ccedilla
ENCODING 199
SWIDTH 683 0
DWIDTH 7 0
BBX 6 10 1 -3
BITMAP
3c
64
c0
c0
c0
64
3c
18
08
18
ENDCHAR
STARTCHAR Egrave
ENCODING 200
SWIDTH 653 0
DWIDTH 7 0
BBX 6 9 1 0
BITMAP
20
10
fc
64
68
78
68
64
fc
ENDCHAR
STARTCHAR Eacute
ENCODING 201
SWIDTH 653 0
DWIDTH 7 0
BBX 6 9 1 0
BITMAP
08
10
fc
64
68
78
68
64
fc
ENDCHAR
STARTCHAR Ecircumflex
ENCODING 202
SWIDTH 653 0
DWIDTH 7 0
BBX 6 9 1 0
BITMAP
10
28
fc
64
68
78
68
64
fc
ENDCHAR
STARTCHAR Edieresis
ENCODING 203
SWIDTH 653 0
DWIDTH 7 0
BBX 6 9 1 0
BITMAP
6c
6c
fc
64
68
78
68
64
fc
ENDCHAR
STARTCHAR Igrave
ENCODING 204
SWIDTH 410 0
DWIDTH 5 0
BBX 4 9 1 0
BITMAP
80
40
f0
60
60
60
60
60
f0
ENDCHAR
STARTCHAR Iacute
ENCODING 205
SWIDTH 410 0
DWIDTH 5 0
BBX 4 9 1 0
BITMAP
20
40
f0
60
60
60
60
60
f0
ENDCHAR
STARTCHAR Icircumflex
ENCODING 206
SWIDTH 410 0
DWIDTH 5 0
BBX 4 9 1 0
BITMAP
40
a0
f0
60
60
60
60
60
f0
ENDCHAR
STARTCHAR Idieresis
ENCODING 207
SWIDTH 410 0
DWIDTH 5 0
BBX 5 9 0 0
BITMAP
d8
d8
78
30
30
30
30
30
78
ENDCHAR
STARTCHAR Eth
ENCODING 208
SWIDTH 780 0
DWIDTH 8 0
BBX 7 7 1 0
BITMAP
f8
6c
66
f6
66
6c
f8
ENDCHAR
STARTCHAR Ntilde
ENCODING 209
SWIDTH 782 0
DWIDTH 8 0
BBX 7 9 1 0
BITMAP
38
38
ee
64
74
54
5c
4c
ec
ENDCHAR
STARTCHAR Ograve
ENCODING 210
SWIDTH 815 0
DWIDTH 8 0
BBX 7 9 1 0
BITMAP
20
10
38
6c
c6
c6
c6
6c
38
ENDCHAR
STARTCHAR Oacute
ENCODING 211
SWIDTH 815 0
DWIDTH 8 0
BBX 7 9 1 0
BITMAP
08
10
38
6c
c6
c6
c6
6c
38
ENDCHAR
STARTCHAR Ocircumflex
ENCODING 212
SWIDTH 815 0
DWIDTH 8 0
BBX 7 9 1 0
BITMAP
10
28
38
6c
c6
c6
c6
6c
38
ENDCHAR
STARTCHAR Otilde
ENCODING 213
SWIDTH 815 0
DWIDTH 8 0
BBX 7 9 1 0
BITMAP
38
38
38
6c
c6
c6
c6
6c
38
ENDCHAR
STARTCHAR Odieresis
ENCODING 214
SWIDTH 815 0
DWIDTH 8 0
BBX 7 9 1 0
BITMAP
6c
6c
38
6c
c6
c6
c6
6c
38
ENDCHAR
STARTCHAR multiply
ENCODING 215
SWIDTH 833 0
DWIDTH 9 0
BBX 6 6 2 0
BITMAP
84
48
30
30
48
84
ENDCHAR
STARTCHAR Oslash
ENCODING 216
SWIDTH 815 0
DWIDTH 8 0
BBX 7 9 1 -1
BITMAP
04
38
6c
ce
d6
e6
6c
78
40
ENDCHAR
STARTCHAR Ugrave
ENCODING 217
SWIDTH 757 0
DWIDTH 9 0
BBX 8 9 1 0
BITMAP
2000
1000
f700
6200
6200
6200
6200
6200
3c00
ENDCHAR
STARTCHAR Uacute
ENCODING 218
SWIDTH 757 0
DWIDTH 9 0
BBX 8 9 1 0
BITMAP
0800
1000
f700
6200
6200
6200
6200
6200
3c00
ENDCHAR
STARTCHAR Ucircumflex
ENCODING 219
SWIDTH 757 0
DWIDTH 9 0
BBX 8 9 1 0
BITMAP
1000
2800
f700
6200
6200
6200
6200
6200
3c00
ENDCHAR
STARTCHAR Udieresis
ENCODING 220
SWIDTH 757 0
DWIDTH 9 0
BBX 8 9 1 0
BITMAP
6c00
6c00
f700
6200
6200
6200
6200
6200
3c00
ENDCHAR
STARTCHAR Yacute
ENCODING 221
SWIDTH 671 0
DWIDTH 8 0
BBX 8 9 0 0
BITMAP
0800
1000
f700
6200
3400
3800
1800
1800
3c00
ENDCHAR
STARTCHAR Thorn
ENCODING 222
SWIDTH 653 0
DWIDTH 7 0
BBX 6 7 1 0
BITMAP
f0
78
6c
6c
6c
78
f0
ENDCHAR
STARTCHAR germandbls
ENCODING 223
SWIDTH 713 0
DWIDTH 7 0
BBX 6 8 1 0
BITMAP
30
58
d8
d0
d8
cc
ec
f8
ENDCHAR
STARTCHAR agrave
ENCODING 224
SWIDTH 616 0
DWIDTH 6 0
BBX 5 8 1 0
BITMAP
40
20
00
70
38
d8
d8
f8
ENDCHAR
STARTCHAR aacute
ENCODING 225
SWIDTH 616 0
DWIDTH 6 0
BBX 5 8 1 0
BITMAP
10
20
00
70
38
d8
d8
f8
ENDCHAR
STARTCHAR acircumflex
ENCODING 226
SWIDTH 616 0
DWIDTH 6 0
BBX 5 8 1 0
BITMAP
20
50
00
70
38
d8
d8
f8
ENDCHAR
STARTCHAR atilde
ENCODING 227
SWIDTH 616 0
DWIDTH 6 0
BBX 5 8 1 0
BITMAP
70
70
00
70
38
d8
d8
f8
ENDCHAR
STARTCHAR adieresis
ENCODING 228
SWIDTH 616 0
DWIDTH 6 0
BBX 5 8 1 0
BITMAP
d8
d8
00
70
38
d8
d8
f8
ENDCHAR
STARTCHAR aring
ENCODING 229
SWIDTH 616 0
DWIDTH 6 0
BBX 5 9 1 0
BITMAP
20
30
30
20
70
38
d8
d8
f8
ENDCHAR
STARTCHAR ae
ENCODING 230
SWIDTH 854 0
DWIDTH 9 0
BBX 8 5 1 0
BITMAP
7600
db00
3f00
d800
ef00
ENDCHAR
STARTCHAR ccedilla
ENCODING 231
SWIDTH 537 0
DWIDTH 6 0
BBX 5 8 1 -3
BITMAP
30
d8
c0
c0
78
30
10
30
ENDCHAR
STARTCHAR egrave
ENCODING 232
SWIDTH 590 0
DWIDTH 6 0
BBX 5 8 1 0
BITMAP
40
20
00
30
d8
f8
c0
78
ENDCHAR
STARTCHAR eacute
ENCODING 233
SWIDTH 590 0
DWIDTH 6 0
BBX 5 8 1 0
BITMAP
10
20
00
30
d8
f8
c0
78
ENDCHAR
STARTCHAR ecircumflex
ENCODING 234
SWIDTH 590 0
DWIDTH 6 0
BBX 5 8 1 0
BITMAP
20
50
00
30
d8
f8
c0
78
ENDCHAR
STARTCHAR edieresis
ENCODING 235
SWIDTH 590 0
DWIDTH 6 0
BBX 5 8 1 0
BITMAP
d8
d8
00
30
d8
f8
c0
78
ENDCHAR
STARTCHAR igrave
ENCODING 236
SWIDTH 354 0
DWIDTH 4 0
BBX 3 8 0 0
BITMAP
80
40
00
60
60
60
60
60
ENDCHAR
STARTCHAR iacute
ENCODING 237
SWIDTH 354 0
DWIDTH 4 0
BBX 2 8 1 0
BITMAP
40
80
00
c0
c0
c0
c0
c0
ENDCHAR
STARTCHAR icircumflex
ENCODING 238
SWIDTH 354 0
DWIDTH 4 0
BBX 3 8 0 0
BITMAP
40
a0
00
60
60
60
60
60
ENDCHAR
STARTCHAR idieresis
ENCODING 239
SWIDTH 354 0
DWIDTH 4 0
BBX 5 8 -1 0
BITMAP
d8
d8
00
30
30
30
30
30
ENDCHAR
STARTCHAR eth
ENCODING 240
SWIDTH 645 0
DWIDTH 7 0
BBX 6 8 1 0
BITMAP
78
30
58
78
cc
cc
cc
30
ENDCHAR
STARTCHAR ntilde
ENCODING 241
SWIDTH 678 0
DWIDTH 7 0
BBX 6 8 1 0
BITMAP
70
70
00
fc
cc
cc
cc
dc
ENDCHAR
STARTCHAR ograve
ENCODING 242
SWIDTH 650 0
DWIDTH 7 0
BBX 6 8 1 0
BITMAP
40
20
00
78
cc
cc
cc
78
ENDCHAR
STARTCHAR oacute
ENCODING 243
SWIDTH 650 0
DWIDTH 7 0
BBX 6 8 1 0
BITMAP
10
20
00
78
cc
cc
cc
78
ENDCHAR
STARTCHAR ocircumflex
ENCODING 244
SWIDTH 650 0
DWIDTH 7 0
BBX 6 8 1 0
BITMAP
20
50
00
78
cc
cc
cc
78
ENDCHAR
STARTCHAR otilde
ENCODING 245
SWIDTH 650 0
DWIDTH 7 0
BBX 6 8 1 0
BITMAP
70
70
00
78
cc
cc
cc
78
ENDCHAR
STARTCHAR odieresis
ENCODING 246
SWIDTH 650 0
DWIDTH 7 0
BBX 6 8 1 0
BITMAP
d8
d8
00
78
cc
cc
cc
78
ENDCHAR
STARTCHAR divide
ENCODING 247
SWIDTH 833 0
DWIDTH 9 0
BBX 7 5 1 1
BITMAP
10
00
fe
00
10
ENDCHAR
STARTCHAR oslash
ENCODING 248
SWIDTH 650 0
DWIDTH 7 0
BBX 6 7 1 -1
BITMAP
08
38
dc
ec
ec
78
40
ENDCHAR
STARTCHAR ugrave
ENCODING 249
SWIDTH 667 0
DWIDTH 7 0
BBX 6 8 1 0
BITMAP
40
20
00
dc
cc
cc
cc
7c
ENDCHAR
STARTCHAR uacute
ENCODING 250
SWIDTH 667 0
DWIDTH 7 0
BBX 6 8 1 0
BITMAP
10
20
00
dc
cc
cc
cc
7c
ENDCHAR
STARTCHAR ucircumflex
ENCODING 251
SWIDTH 667 0
DWIDTH 7 0
BBX 6 8 1 0
BITMAP
20
50
00
dc
cc
cc
cc
7c
ENDCHAR
STARTCHAR udieresis
ENCODING 252
SWIDTH 667 0
DWIDTH 7 0
BBX 6 8 1 0
BITMAP
d8
d8
00
dc
cc
cc
cc
7c
ENDCHAR
STARTCHAR yacute
ENCODING 253
SWIDTH 567 0
DWIDTH 6 0
BBX 6 10 0 -2
BITMAP
10
20
00
ec
68
68
30
30
a0
c0
ENDCHAR
STARTCHAR thorn
ENCODING 254
SWIDTH 667 0
DWIDTH 7 0
BBX 6 10 1 -2
BITMAP
c0
c0
c0
f8
cc
cc
cc
f0
c0
e0
ENDCHAR
STARTCHAR ydieresis
ENCODING 255
SWIDTH 567 0
DWIDTH 6 0
BBX 6 10 0 -2
BITMAP
d8
d8
00
ec
68
68
30
30
a0
c0
ENDCHAR
ENDFONT
